<svg width="512" height="512" viewBox="0 0 512 512" fill="none" xmlns="http://www.w3.org/2000/svg">
<rect width="512" height="512" fill="#1C1C1C"/>
<g clip-path="url(#clip0_816_10868)">
<path d="M167.636 254.05C169.28 276.877 176.674 298.484 200.501 310.913C175.031 258.518 192.86 205.311 233.365 183.297C229.421 190.202 223.67 204.986 232.214 211.809C268.119 178.748 279.457 125.216 276.088 81.8374C313.307 119.448 331.711 172.98 301.147 221.963C281.346 253.888 305.995 286.949 327.603 220.826C354.305 255.025 371.723 304.008 359.728 349.58C330.643 453.476 170.019 456.888 150.465 358.84C143.81 326.997 151.204 289.386 167.636 254.05Z" fill="white"/>
<path d="M181.686 234.717C153.587 183.378 209.045 163.233 210.196 134.395C231.229 186.79 181.522 192.557 181.686 234.717Z" fill="white"/>
</g>
<defs>
<clipPath id="clip0_816_10868">
<rect width="216" height="348" fill="white" transform="translate(148 82)"/>
</clipPath>
</defs>
</svg>
