<svg width="16" height="26" viewBox="0 0 16 26" fill="none" xmlns="http://www.w3.org/2000/svg">
<g clip-path="url(#clip0_894_13699)">
<path d="M1.45433 12.8544C1.57604 14.5598 2.12378 16.1742 3.88871 17.1028C2.00206 13.1882 3.32272 9.21294 6.3231 7.56821C6.03097 8.08409 5.60495 9.18866 6.23789 9.69847C8.89746 7.22834 9.73732 3.22881 9.4878 -0.012085C12.2447 2.79791 13.608 6.79744 11.344 10.4571C9.8773 12.8423 11.7031 15.3124 13.3037 10.3721C15.2816 12.9272 16.5719 16.5869 15.6833 19.9917C13.5289 27.754 1.63082 28.0089 0.182359 20.6835C-0.310604 18.3044 0.237132 15.4945 1.45433 12.8544Z" fill="white"/>
<path d="M2.49507 11.4099C0.41367 7.57421 4.5217 6.06908 4.6069 3.91455C6.16491 7.82912 2.4829 8.26002 2.49507 11.4099Z" fill="white"/>
</g>
<defs>
<clipPath id="clip0_894_13699">
<rect width="16" height="26" fill="white"/>
</clipPath>
</defs>
</svg>
