<svg width="52" height="52" viewBox="0 0 52 52" fill="none" xmlns="http://www.w3.org/2000/svg">
<path d="M39.0444 9.7503C38.4016 9.74156 37.7707 9.92358 37.2315 10.2734C36.6922 10.6232 36.2687 11.125 36.0147 11.7154C35.7606 12.3058 35.6873 12.9583 35.8041 13.5904C35.9209 14.2225 36.2224 14.8057 36.6707 15.2664C37.1189 15.7271 37.6937 16.0445 38.3224 16.1786C38.9511 16.3126 39.6054 16.2572 40.2025 16.0194C40.7997 15.7816 41.313 15.3721 41.6774 14.8426C42.0419 14.3132 42.2411 13.6875 42.25 13.0448V12.9558C42.2423 12.108 41.902 11.2972 41.3025 10.6977C40.703 10.0982 39.8922 9.75804 39.0444 9.7503Z" stroke="white" stroke-linecap="round" stroke-linejoin="round"/>
<path d="M26 16.25C24.0716 16.25 22.1866 16.8218 20.5832 17.8932C18.9798 18.9645 17.7301 20.4873 16.9922 22.2688C16.2542 24.0504 16.0611 26.0108 16.4373 27.9021C16.8136 29.7934 17.7422 31.5307 19.1057 32.8943C20.4693 34.2578 22.2066 35.1864 24.0979 35.5627C25.9892 35.9389 27.9496 35.7458 29.7312 35.0078C31.5127 34.2699 33.0355 33.0202 34.1068 31.4168C35.1782 29.8134 35.75 27.9284 35.75 26C35.75 23.4141 34.7228 20.9342 32.8943 19.1057C31.0658 17.2772 28.5859 16.25 26 16.25Z" stroke="white" stroke-linecap="round" stroke-linejoin="round"/>
<rect x="0.5" y="0.5" width="51" height="51" rx="3.5" stroke="white"/>
</svg>
