<svg width="26" height="26" viewBox="0 0 26 26" fill="none" xmlns="http://www.w3.org/2000/svg">
<path d="M11.9718 18.5091C8.3916 18.5091 5.50757 15.6245 5.50757 12.0436C5.50757 8.46273 8.3916 5.57812 11.9718 5.57812C15.552 5.57812 18.436 8.46273 18.436 12.0436C18.436 15.6245 15.552 18.5091 11.9718 18.5091ZM11.9718 6.57282C8.93858 6.57282 6.50206 9.00981 6.50206 12.0436C6.50206 15.0774 8.93858 17.5144 11.9718 17.5144C15.005 17.5144 17.4415 15.0774 17.4415 12.0436C17.4415 9.00981 15.005 6.57282 11.9718 6.57282Z" fill="black"/>
<path d="M16.7861 16.1553L21.2514 20.6214L20.5483 21.3247L16.083 16.8585L16.7861 16.1553Z" fill="black"/>
</svg>
