<svg width="8" height="10" viewBox="0 0 8 10" fill="none" xmlns="http://www.w3.org/2000/svg">
<g clip-path="url(#clip0_1209_36419)">
<rect width="375" height="1529" transform="translate(-100 -1311)" fill="white"/>
<path d="M-31.328 -24H-30.404L-27.394 -27.92H-24.076V-24H-23.348V-33.8H-27.464C-29.634 -33.8 -30.964 -32.554 -30.964 -30.944C-30.964 -29.278 -29.858 -28.27 -28.206 -28.046L-31.328 -24ZM-27.38 -28.578C-29.018 -28.578 -30.236 -29.474 -30.236 -30.888C-30.236 -32.232 -29.2 -33.128 -27.422 -33.128H-24.076V-28.578H-27.38ZM-13.2335 -23.832C-11.9175 -23.832 -11.0495 -24.42 -10.3215 -25.246L-10.8255 -25.694C-11.4275 -25.022 -12.1835 -24.476 -13.1915 -24.476C-14.8295 -24.476 -16.1315 -25.848 -16.1315 -27.57C-16.1315 -29.278 -14.8295 -30.664 -13.2475 -30.664C-12.1835 -30.664 -11.4835 -30.118 -10.8675 -29.488L-10.3915 -29.978C-11.0215 -30.692 -11.8895 -31.308 -13.2335 -31.308C-15.2775 -31.308 -16.8735 -29.614 -16.8735 -27.57C-16.8735 -25.512 -15.2915 -23.832 -13.2335 -23.832ZM-5.2215 -23.832C-3.0935 -23.832 -1.5395 -25.568 -1.5395 -27.57C-1.5395 -29.6 -3.0795 -31.308 -5.1935 -31.308C-7.3215 -31.308 -8.8755 -29.572 -8.8755 -27.57C-8.8755 -25.54 -7.3355 -23.832 -5.2215 -23.832ZM-5.1935 -24.476C-6.8455 -24.476 -8.1335 -25.848 -8.1335 -27.57C-8.1335 -29.278 -6.8315 -30.664 -5.2215 -30.664C-3.6115 -30.664 -2.2815 -29.292 -2.2815 -27.57C-2.2815 -25.862 -3.6115 -24.476 -5.1935 -24.476ZM0.569578 -24H1.25558V-30.524H5.28758V-31.14H0.569578V-24ZM6.54703 -23.888C7.86303 -23.888 8.73103 -24.42 8.74503 -30.328V-30.524H12.259V-24H12.945V-31.14H8.08703V-30.762C8.05903 -24.952 7.38703 -24.532 6.43503 -24.532C6.29503 -24.532 5.98703 -24.602 5.88903 -24.63L5.76303 -24C5.95903 -23.944 6.32303 -23.888 6.54703 -23.888ZM17.724 -23.832C19.082 -23.832 19.964 -24.504 20.454 -25.19V-24H21.126V-28.452C21.126 -29.334 20.874 -29.992 20.398 -30.468C19.88 -30.986 19.11 -31.252 18.144 -31.252C17.164 -31.252 16.394 -31 15.61 -30.636L15.862 -30.034C16.52 -30.37 17.234 -30.608 18.102 -30.608C19.572 -30.608 20.454 -29.866 20.454 -28.424V-28.116C19.768 -28.298 19.082 -28.424 18.088 -28.424C16.24 -28.424 14.966 -27.584 14.966 -26.1C14.966 -24.588 16.254 -23.832 17.724 -23.832ZM17.766 -24.476C16.534 -24.476 15.708 -25.078 15.708 -26.114C15.708 -27.136 16.534 -27.808 18.046 -27.808C19.068 -27.808 19.866 -27.64 20.468 -27.486V-26.674C20.468 -25.372 19.222 -24.476 17.766 -24.476ZM26.743 -23.832C28.059 -23.832 28.927 -24.42 29.655 -25.246L29.151 -25.694C28.549 -25.022 27.793 -24.476 26.785 -24.476C25.147 -24.476 23.845 -25.848 23.845 -27.57C23.845 -29.278 25.147 -30.664 26.729 -30.664C27.793 -30.664 28.493 -30.118 29.109 -29.488L29.585 -29.978C28.955 -30.692 28.087 -31.308 26.743 -31.308C24.699 -31.308 23.103 -29.614 23.103 -27.57C23.103 -25.512 24.685 -23.832 26.743 -23.832ZM34.6011 -23.832C35.9731 -23.832 36.8271 -24.392 37.5551 -25.176L37.0791 -25.596C36.4911 -24.966 35.7351 -24.476 34.6291 -24.476C33.2291 -24.476 31.9551 -25.512 31.8291 -27.29H37.7511C37.7651 -27.402 37.7651 -27.444 37.7651 -27.57C37.7651 -29.684 36.4911 -31.308 34.4891 -31.308C32.5571 -31.308 31.1011 -29.656 31.1011 -27.584C31.1011 -25.33 32.7251 -23.832 34.6011 -23.832ZM31.8291 -27.906C31.9551 -29.488 33.0471 -30.678 34.4611 -30.678C36.0991 -30.678 36.9251 -29.348 37.0231 -27.906H31.8291ZM39.7668 -24H40.4528V-27.346H45.1988V-24H45.8848V-31.14H45.1988V-27.962H40.4528V-31.14H39.7668V-24ZM52.0595 -22.026L52.3535 -22.488C50.1415 -23.846 48.9095 -25.68 48.9095 -28.018C48.9095 -30.356 50.1415 -32.19 52.3535 -33.548L52.0595 -34.01C49.5955 -32.61 48.1815 -30.552 48.1815 -28.018C48.1815 -25.484 49.5955 -23.426 52.0595 -22.026ZM56.6751 -23.832C58.0331 -23.832 58.9151 -24.504 59.4051 -25.19V-24H60.0771V-28.452C60.0771 -29.334 59.8251 -29.992 59.3491 -30.468C58.8311 -30.986 58.0611 -31.252 57.0951 -31.252C56.1151 -31.252 55.3451 -31 54.5611 -30.636L54.8131 -30.034C55.4711 -30.37 56.1851 -30.608 57.0531 -30.608C58.5231 -30.608 59.4051 -29.866 59.4051 -28.424V-28.116C58.7191 -28.298 58.0331 -28.424 57.0391 -28.424C55.1911 -28.424 53.9171 -27.584 53.9171 -26.1C53.9171 -24.588 55.2051 -23.832 56.6751 -23.832ZM56.7171 -24.476C55.4851 -24.476 54.6591 -25.078 54.6591 -26.114C54.6591 -27.136 55.4851 -27.808 56.9971 -27.808C58.0191 -27.808 58.8171 -27.64 59.4191 -27.486V-26.674C59.4191 -25.372 58.1731 -24.476 56.7171 -24.476ZM62.3902 -22.026C64.8542 -23.426 66.2682 -25.484 66.2682 -28.018C66.2682 -30.552 64.8542 -32.61 62.3902 -34.01L62.0962 -33.548C64.3082 -32.19 65.5402 -30.356 65.5402 -28.018C65.5402 -25.68 64.3082 -23.846 62.0962 -22.488L62.3902 -22.026ZM72.7571 -24H73.4431V-27.346H78.1891V-24H78.8751V-31.14H78.1891V-27.962H73.4431V-31.14H72.7571V-24ZM83.6497 -23.832C85.0077 -23.832 85.8897 -24.504 86.3797 -25.19V-24H87.0517V-28.452C87.0517 -29.334 86.7997 -29.992 86.3237 -30.468C85.8057 -30.986 85.0357 -31.252 84.0697 -31.252C83.0897 -31.252 82.3197 -31 81.5357 -30.636L81.7877 -30.034C82.4457 -30.37 83.1597 -30.608 84.0277 -30.608C85.4977 -30.608 86.3797 -29.866 86.3797 -28.424V-28.116C85.6937 -28.298 85.0077 -28.424 84.0137 -28.424C82.1657 -28.424 80.8917 -27.584 80.8917 -26.1C80.8917 -24.588 82.1797 -23.832 83.6497 -23.832ZM83.6917 -24.476C82.4597 -24.476 81.6337 -25.078 81.6337 -26.114C81.6337 -27.136 82.4597 -27.808 83.9717 -27.808C84.9937 -27.808 85.7917 -27.64 86.3937 -27.486V-26.674C86.3937 -25.372 85.1477 -24.476 83.6917 -24.476ZM93.7161 -24H94.4021V-30.524H98.9661V-24H99.6521V-31.14H93.7161V-24ZM105.425 -23.832C107.553 -23.832 109.107 -25.568 109.107 -27.57C109.107 -29.6 107.567 -31.308 105.453 -31.308C103.325 -31.308 101.771 -29.572 101.771 -27.57C101.771 -25.54 103.311 -23.832 105.425 -23.832ZM105.453 -24.476C103.801 -24.476 102.513 -25.848 102.513 -27.57C102.513 -29.278 103.815 -30.664 105.425 -30.664C107.035 -30.664 108.365 -29.292 108.365 -27.57C108.365 -25.862 107.035 -24.476 105.453 -24.476ZM110.11 -21.984H110.684L110.824 -24H117.334V-21.984H117.894L118.034 -24.616H116.886V-31.14H112.098V-29.628C112.098 -27.248 111.678 -25.652 111.048 -24.616H110.11V-21.984ZM111.804 -24.616C112.364 -25.568 112.756 -27.332 112.756 -29.236V-30.524H116.2V-24.616H111.804ZM119.761 -24H120.447V-30.524H125.011V-24H125.697V-31.14H119.761V-24ZM128.306 -24H128.992L133.836 -30.23V-24H134.522V-31.14H133.836L128.992 -24.91V-31.14H128.306V-24ZM140.274 -23.832C141.59 -23.832 142.458 -24.42 143.186 -25.246L142.682 -25.694C142.08 -25.022 141.324 -24.476 140.316 -24.476C138.678 -24.476 137.376 -25.848 137.376 -27.57C137.376 -29.278 138.678 -30.664 140.26 -30.664C141.324 -30.664 142.024 -30.118 142.64 -29.488L143.116 -29.978C142.486 -30.692 141.618 -31.308 140.274 -31.308C138.23 -31.308 136.634 -29.614 136.634 -27.57C136.634 -25.512 138.216 -23.832 140.274 -23.832ZM145.122 -24H145.808V-25.736L147.544 -27.486L150.372 -24H151.24L148.02 -27.976L151.142 -31.14H150.232L145.808 -26.562V-31.14H145.122V-24ZM153.77 -21.718C154.792 -21.718 155.52 -22.25 156.15 -23.748L159.244 -31.14H158.488L155.912 -24.756L152.944 -31.14H152.146L155.576 -24.042C155.044 -22.796 154.554 -22.362 153.812 -22.362C153.28 -22.362 152.972 -22.446 152.594 -22.628L152.356 -22.026C152.832 -21.816 153.224 -21.718 153.77 -21.718ZM160.74 -22.502C161.58 -22.824 161.902 -23.286 161.902 -24.154V-25.19H160.978V-24H161.356V-23.874C161.356 -23.412 161.132 -23.132 160.572 -22.852L160.74 -22.502ZM168.556 -24H169.242V-30.524H173.806V-24H174.492V-31.14H168.556V-24ZM180.111 -23.832C181.483 -23.832 182.337 -24.392 183.065 -25.176L182.589 -25.596C182.001 -24.966 181.245 -24.476 180.139 -24.476C178.739 -24.476 177.465 -25.512 177.339 -27.29H183.261C183.275 -27.402 183.275 -27.444 183.275 -27.57C183.275 -29.684 182.001 -31.308 179.999 -31.308C178.067 -31.308 176.611 -29.656 176.611 -27.584C176.611 -25.33 178.235 -23.832 180.111 -23.832ZM177.339 -27.906C177.465 -29.488 178.557 -30.678 179.971 -30.678C181.609 -30.678 182.435 -29.348 182.533 -27.906H177.339ZM185.277 -21.76H185.963V-25.54C186.551 -24.644 187.475 -23.832 188.903 -23.832C190.625 -23.832 192.375 -25.246 192.375 -27.57C192.375 -29.922 190.625 -31.308 188.903 -31.308C187.489 -31.308 186.579 -30.482 185.963 -29.544V-31.14H185.277V-21.76ZM188.833 -24.49C187.349 -24.49 185.921 -25.722 185.921 -27.556C185.921 -29.404 187.349 -30.65 188.833 -30.65C190.331 -30.65 191.633 -29.446 191.633 -27.57C191.633 -25.624 190.387 -24.49 188.833 -24.49ZM194.519 -24H197.935C199.475 -24 200.497 -24.756 200.497 -25.946C200.497 -26.954 199.741 -27.5 198.887 -27.724C199.461 -27.962 200.091 -28.396 200.091 -29.362C200.091 -30.454 199.167 -31.14 197.781 -31.14H194.519V-24ZM195.205 -24.616V-27.374H197.683C199.055 -27.374 199.783 -26.87 199.783 -26.044C199.783 -25.162 199.041 -24.616 197.851 -24.616H195.205ZM195.205 -27.948V-30.524H197.725C198.803 -30.524 199.391 -30.034 199.391 -29.32C199.391 -28.424 198.677 -27.948 197.683 -27.948H195.205ZM202.64 -24H205.58C207.148 -24 208.184 -24.91 208.184 -26.296C208.184 -27.766 206.938 -28.396 205.454 -28.396H203.326V-31.14H202.64V-24ZM203.326 -24.616V-27.78H205.412C206.658 -27.78 207.442 -27.234 207.442 -26.268C207.442 -25.218 206.672 -24.616 205.468 -24.616H203.326ZM209.612 -24H210.298V-31.14H209.612V-24ZM212.907 -24H213.593L218.437 -30.23V-24H219.123V-31.14H218.437L213.593 -24.91V-31.14H212.907V-24ZM216.015 -32.302C217.009 -32.302 217.737 -33.002 217.905 -33.912L217.331 -34.038C217.163 -33.408 216.743 -33.016 216.015 -33.016C215.287 -33.016 214.867 -33.408 214.699 -34.038L214.125 -33.912C214.293 -33.002 215.021 -32.302 216.015 -32.302ZM-30.698 -7H-30.04V-12.95L-27.198 -9.002L-24.328 -12.95V-7H-23.642V-14.14H-24.258L-27.17 -10.038L-30.082 -14.14H-30.698V-7ZM-18.022 -6.832C-16.65 -6.832 -15.796 -7.392 -15.068 -8.176L-15.544 -8.596C-16.132 -7.966 -16.888 -7.476 -17.994 -7.476C-19.394 -7.476 -20.668 -8.512 -20.794 -10.29H-14.872C-14.858 -10.402 -14.858 -10.444 -14.858 -10.57C-14.858 -12.684 -16.132 -14.308 -18.134 -14.308C-20.066 -14.308 -21.522 -12.656 -21.522 -10.584C-21.522 -8.33 -19.898 -6.832 -18.022 -6.832ZM-20.794 -10.906C-20.668 -12.488 -19.576 -13.678 -18.162 -13.678C-16.524 -13.678 -15.698 -12.348 -15.6 -10.906H-20.794ZM-9.7062 -6.832C-8.3902 -6.832 -7.5222 -7.42 -6.7942 -8.246L-7.2982 -8.694C-7.9002 -8.022 -8.6562 -7.476 -9.6642 -7.476C-11.3022 -7.476 -12.6042 -8.848 -12.6042 -10.57C-12.6042 -12.278 -11.3022 -13.664 -9.7202 -13.664C-8.6562 -13.664 -7.9562 -13.118 -7.3402 -12.488L-6.8642 -12.978C-7.4942 -13.692 -8.3622 -14.308 -9.7062 -14.308C-11.7502 -14.308 -13.3462 -12.614 -13.3462 -10.57C-13.3462 -8.512 -11.7642 -6.832 -9.7062 -6.832ZM-5.43216 -7H-4.59216L-2.46416 -9.744H-0.112156V-7H0.573844V-14.14H-2.61816C-4.25616 -14.14 -5.23616 -13.272 -5.23616 -12.012C-5.23616 -10.822 -4.31216 -10.052 -3.17816 -9.842L-5.43216 -7ZM-2.49216 -10.36C-3.64016 -10.36 -4.49416 -10.976 -4.49416 -11.97C-4.49416 -12.908 -3.76616 -13.524 -2.52016 -13.524H-0.112156V-10.36H-2.49216ZM9.56491 -4.984H10.1249L10.2649 -7.616H9.11691V-14.14H8.43091V-7.616H3.86691V-14.14H3.18091V-7H9.56491V-4.984ZM15.8609 -10.794H26.4729V-11.522H15.8609V-10.794ZM37.8863 -7H38.5863V-9.394H40.1823V-10.024H38.5863V-16.87H37.9283L32.3283 -9.94L32.5802 -9.394H37.8863V-7ZM33.2103 -10.024L37.8863 -15.82V-10.024H33.2103ZM47.1831 -7H47.8831V-9.394H49.4791V-10.024H47.8831V-16.87H47.2251L41.6251 -9.94L41.8771 -9.394H47.1831V-7ZM42.5071 -10.024L47.1831 -15.82V-10.024H42.5071ZM54.478 -6.832C56.452 -6.832 57.894 -8.134 57.894 -9.982C57.894 -11.76 56.424 -12.964 54.534 -12.964C53.624 -12.964 52.994 -12.74 52.364 -12.432L52.602 -16.1H57.46V-16.8H51.958L51.678 -12.054L52.238 -11.69C52.854 -12.026 53.54 -12.306 54.45 -12.306C56.032 -12.306 57.138 -11.34 57.138 -9.982C57.138 -8.582 56.06 -7.49 54.506 -7.49C53.47 -7.49 52.448 -8.05 51.566 -8.932L51.048 -8.414C51.902 -7.546 53.148 -6.832 54.478 -6.832ZM64.2818 -7V-8.904H63.0638V-9.814H64.2818V-11.06H63.0638V-12.124H64.2818V-16.996H66.9138C68.1365 -16.996 69.0418 -16.7487 69.6298 -16.254C70.2272 -15.7593 70.5258 -15.0407 70.5258 -14.098C70.5258 -13.146 70.2038 -12.3993 69.5598 -11.858C68.9158 -11.326 67.9685 -11.06 66.7178 -11.06H65.5418V-9.814H67.8518V-8.904H65.5418V-7H64.2818ZM66.5358 -12.124C67.3852 -12.124 68.0432 -12.264 68.5098 -12.544C68.9858 -12.824 69.2238 -13.328 69.2238 -14.056C69.2238 -14.6907 69.0278 -15.162 68.6358 -15.47C68.2438 -15.778 67.6325 -15.932 66.8018 -15.932H65.5418V-12.124H66.5358ZM71.9823 -5.502C72.8223 -5.824 73.1443 -6.286 73.1443 -7.154V-8.19H72.2203V-7H72.5983V-6.874C72.5983 -6.412 72.3743 -6.132 71.8143 -5.852L71.9823 -5.502ZM79.7981 -7H83.2141C84.7541 -7 85.7761 -7.756 85.7761 -8.946C85.7761 -9.954 85.0201 -10.5 84.1661 -10.724C84.7401 -10.962 85.3701 -11.396 85.3701 -12.362C85.3701 -13.454 84.4461 -14.14 83.0601 -14.14H79.7981V-7ZM80.4841 -7.616V-10.374H82.9621C84.3341 -10.374 85.0621 -9.87 85.0621 -9.044C85.0621 -8.162 84.3201 -7.616 83.1301 -7.616H80.4841ZM80.4841 -10.948V-13.524H83.0041C84.0821 -13.524 84.6701 -13.034 84.6701 -12.32C84.6701 -11.424 83.9561 -10.948 82.9621 -10.948H80.4841ZM91.0692 -6.832C92.3852 -6.832 93.2532 -7.42 93.9812 -8.246L93.4772 -8.694C92.8752 -8.022 92.1192 -7.476 91.1112 -7.476C89.4732 -7.476 88.1712 -8.848 88.1712 -10.57C88.1712 -12.278 89.4732 -13.664 91.0552 -13.664C92.1192 -13.664 92.8192 -13.118 93.4352 -12.488L93.9112 -12.978C93.2812 -13.692 92.4132 -14.308 91.0692 -14.308C89.0252 -14.308 87.4292 -12.614 87.4292 -10.57C87.4292 -8.512 89.0112 -6.832 91.0692 -6.832ZM98.9272 -6.832C100.299 -6.832 101.153 -7.392 101.881 -8.176L101.405 -8.596C100.817 -7.966 100.061 -7.476 98.9552 -7.476C97.5552 -7.476 96.2812 -8.512 96.1552 -10.29H102.077C102.091 -10.402 102.091 -10.444 102.091 -10.57C102.091 -12.684 100.817 -14.308 98.8152 -14.308C96.8832 -14.308 95.4272 -12.656 95.4272 -10.584C95.4272 -8.33 97.0512 -6.832 98.9272 -6.832ZM96.1552 -10.906C96.2812 -12.488 97.3732 -13.678 98.7872 -13.678C100.425 -13.678 101.251 -12.348 101.349 -10.906H96.1552ZM108.29 -7H108.976V-13.524H113.54V-7H114.226V-14.14H108.29V-7ZM119.999 -6.832C122.127 -6.832 123.681 -8.568 123.681 -10.57C123.681 -12.6 122.141 -14.308 120.027 -14.308C117.899 -14.308 116.345 -12.572 116.345 -10.57C116.345 -8.54 117.885 -6.832 119.999 -6.832ZM120.027 -7.476C118.375 -7.476 117.087 -8.848 117.087 -10.57C117.087 -12.278 118.389 -13.664 119.999 -13.664C121.609 -13.664 122.939 -12.292 122.939 -10.57C122.939 -8.862 121.609 -7.476 120.027 -7.476ZM128.94 -6.832C130.256 -6.832 131.124 -7.42 131.852 -8.246L131.348 -8.694C130.746 -8.022 129.99 -7.476 128.982 -7.476C127.344 -7.476 126.042 -8.848 126.042 -10.57C126.042 -12.278 127.344 -13.664 128.926 -13.664C129.99 -13.664 130.69 -13.118 131.306 -12.488L131.782 -12.978C131.152 -13.692 130.284 -14.308 128.94 -14.308C126.896 -14.308 125.3 -12.614 125.3 -10.57C125.3 -8.512 126.882 -6.832 128.94 -6.832ZM133.326 -6.888C134.642 -6.888 135.51 -7.42 135.524 -13.328V-13.524H139.038V-7H139.724V-14.14H134.866V-13.762C134.838 -7.952 134.166 -7.532 133.214 -7.532C133.074 -7.532 132.766 -7.602 132.668 -7.63L132.542 -7C132.738 -6.944 133.102 -6.888 133.326 -6.888ZM145.343 -6.832C146.715 -6.832 147.569 -7.392 148.297 -8.176L147.821 -8.596C147.233 -7.966 146.477 -7.476 145.371 -7.476C143.971 -7.476 142.697 -8.512 142.571 -10.29H148.493C148.507 -10.402 148.507 -10.444 148.507 -10.57C148.507 -12.684 147.233 -14.308 145.231 -14.308C143.299 -14.308 141.843 -12.656 141.843 -10.584C141.843 -8.33 143.467 -6.832 145.343 -6.832ZM142.571 -10.906C142.697 -12.488 143.789 -13.678 145.203 -13.678C146.841 -13.678 147.667 -12.348 147.765 -10.906H142.571ZM149.403 -4.984H149.977L150.117 -7H156.627V-4.984H157.187L157.327 -7.616H156.179V-14.14H151.391V-12.628C151.391 -10.248 150.971 -8.652 150.341 -7.616H149.403V-4.984ZM151.097 -7.616C151.657 -8.568 152.049 -10.332 152.049 -12.236V-13.524H155.493V-7.616H151.097ZM159.922 -4.718C160.944 -4.718 161.672 -5.25 162.302 -6.748L165.396 -14.14H164.64L162.064 -7.756L159.096 -14.14H158.298L161.728 -7.042C161.196 -5.796 160.706 -5.362 159.964 -5.362C159.432 -5.362 159.124 -5.446 158.746 -5.628L158.508 -5.026C158.984 -4.816 159.376 -4.718 159.922 -4.718ZM173.178 -6.832C175.306 -6.832 176.65 -8.568 176.65 -10.57C176.65 -12.6 175.32 -14.308 173.206 -14.308C171.19 -14.308 169.874 -12.754 169.734 -10.906H167.97V-14.14H167.284V-7H167.97V-10.276H169.734C169.86 -8.372 171.148 -6.832 173.178 -6.832ZM173.206 -7.476C171.554 -7.476 170.476 -8.848 170.476 -10.57C170.476 -12.278 171.484 -13.664 173.178 -13.664C174.83 -13.664 175.908 -12.292 175.908 -10.57C175.908 -8.862 174.9 -7.476 173.206 -7.476ZM189.171 -4.984H189.731L189.871 -7.616H188.723V-14.14H188.037V-7.616H184.089V-14.14H183.403V-7.616H179.455V-14.14H178.769V-7H189.171V-4.984ZM191.593 -7H192.279L197.123 -13.23V-7H197.809V-14.14H197.123L192.279 -7.91V-14.14H191.593V-7ZM203.421 -6.832C204.793 -6.832 205.647 -7.392 206.375 -8.176L205.899 -8.596C205.311 -7.966 204.555 -7.476 203.449 -7.476C202.049 -7.476 200.775 -8.512 200.649 -10.29H206.571C206.585 -10.402 206.585 -10.444 206.585 -10.57C206.585 -12.684 205.311 -14.308 203.309 -14.308C201.377 -14.308 199.921 -12.656 199.921 -10.584C199.921 -8.33 201.545 -6.832 203.421 -6.832ZM200.649 -10.906C200.775 -12.488 201.867 -13.678 203.281 -13.678C204.919 -13.678 205.745 -12.348 205.843 -10.906H200.649ZM212.462 -10.794H223.074V-11.522H212.462V-10.794ZM-27.898 10.168C-25.616 10.168 -23.908 7.956 -23.908 4.876C-23.908 2.888 -24.384 1.782 -25.14 1.026C-25.728 0.438 -26.582 0.0319998 -27.632 0.0319998C-29.676 0.0319998 -31.076 1.516 -31.076 3.322C-31.076 5.03 -29.662 6.346 -27.688 6.346C-26.148 6.346 -25.196 5.464 -24.636 4.456V4.792C-24.636 7.564 -25.98 9.51 -27.884 9.51C-28.78 9.51 -29.564 9.132 -30.39 8.39L-30.852 8.95C-30.04 9.636 -29.116 10.168 -27.898 10.168ZM-27.66 5.702C-29.214 5.702 -30.32 4.694 -30.32 3.322C-30.32 1.936 -29.326 0.69 -27.716 0.69C-26.092 0.69 -24.93 1.796 -24.93 3.182C-24.93 4.442 -25.994 5.702 -27.66 5.702ZM-18.9156 10.168C-16.6336 10.168 -14.9256 7.956 -14.9256 4.876C-14.9256 2.888 -15.4016 1.782 -16.1576 1.026C-16.7456 0.438 -17.5996 0.0319998 -18.6496 0.0319998C-20.6936 0.0319998 -22.0936 1.516 -22.0936 3.322C-22.0936 5.03 -20.6796 6.346 -18.7056 6.346C-17.1656 6.346 -16.2136 5.464 -15.6536 4.456V4.792C-15.6536 7.564 -16.9976 9.51 -18.9016 9.51C-19.7976 9.51 -20.5816 9.132 -21.4076 8.39L-21.8696 8.95C-21.0576 9.636 -20.1336 10.168 -18.9156 10.168ZM-18.6776 5.702C-20.2316 5.702 -21.3376 4.694 -21.3376 3.322C-21.3376 1.936 -20.3436 0.69 -18.7336 0.69C-17.1096 0.69 -15.9476 1.796 -15.9476 3.182C-15.9476 4.442 -17.0116 5.702 -18.6776 5.702ZM-9.07916 10.168C-6.58716 10.168 -5.00516 7.802 -5.00516 5.1C-5.00516 2.37 -6.55916 0.0319998 -9.05116 0.0319998C-11.5432 0.0319998 -13.1252 2.398 -13.1252 5.1C-13.1252 7.83 -11.5712 10.168 -9.07916 10.168ZM-9.05116 9.51C-11.0812 9.51 -12.3692 7.368 -12.3692 5.1C-12.3692 2.79 -11.1092 0.69 -9.07916 0.69C-7.04916 0.69 -5.76116 2.818 -5.76116 5.1C-5.76116 7.396 -7.02116 9.51 -9.05116 9.51ZM1.45956 10V8.096H0.241563V7.186H1.45956V5.94H0.241563V4.876H1.45956V0.00399935H4.09156C5.31423 0.00399935 6.21956 0.251333 6.80756 0.746C7.4049 1.24067 7.70356 1.95933 7.70356 2.902C7.70356 3.854 7.38156 4.60067 6.73756 5.142C6.09356 5.674 5.14623 5.94 3.89556 5.94H2.71956V7.186H5.02956V8.096H2.71956V10H1.45956ZM3.71356 4.876C4.5629 4.876 5.2209 4.736 5.68756 4.456C6.16356 4.176 6.40156 3.672 6.40156 2.944C6.40156 2.30933 6.20556 1.838 5.81356 1.53C5.42156 1.222 4.81023 1.068 3.97956 1.068H2.71956V4.876H3.71356Z" fill="#1C1C1C"/>
</g>
<defs>
<clipPath id="clip0_1209_36419">
<rect width="375" height="1529" fill="white" transform="translate(-100 -1311)"/>
</clipPath>
</defs>
</svg>
