<svg xmlns="http://www.w3.org/2000/svg"><style>:root svg:not(:target){display:none}</style><svg fill="none" id="icon-arrow" viewBox="0 0 28 19"><path d="M4.82 2 14 11.271 23.18 2 26 4.854 14 17 2 4.854 4.82 2Z" fill="#fff" stroke="#1C1C1C" stroke-width="1.8"></path></svg><svg fill="none" id="icon-close" viewBox="0 0 18 18"><path fill-rule="evenodd" clip-rule="evenodd" d="m8.999 9.795 4.101 4.103.797-.795L9.794 9l4.103-4.102-.795-.796-4.103 4.103-4.102-4.103-.795.796L8.203 9l-4.101 4.102.795.796 4.102-4.103Z" fill="currentColor"></path></svg><svg fill="none" id="icon-fire" viewBox="0 0 22 36"><g clip-path="url(#icon-fire_0)" fill="currentColor"><path d="M2 17.798c.167 2.362.92 4.597 3.347 5.883-2.594-5.42-.778-10.925 3.347-13.202-.401.714-.987 2.244-.117 2.95 3.657-3.42 4.812-8.958 4.469-13.446 3.79 3.89 5.665 9.429 2.552 14.496-2.017 3.303.494 6.723 2.695-.118 2.72 3.538 4.494 8.605 3.272 13.32-2.963 10.747-19.322 11.1-21.314.958-.678-3.294.075-7.185 1.749-10.84Z"></path><path d="M3.43 15.798C.57 10.488 6.218 8.403 6.336 5.42c2.142 5.42-2.92 6.017-2.904 10.378Z"></path></g><defs><clipPath id="icon-fire_0"><path fill="currentColor" d="M0 0h22v36H0z"></path></clipPath></defs></svg><svg fill="none" id="icon-instagram" viewBox="0 0 52 52"><path d="M39.044 9.75a3.25 3.25 0 1 0 3.206 3.295v-.09a3.235 3.235 0 0 0-3.206-3.205ZM26 16.25a9.75 9.75 0 1 0 0 19.499 9.75 9.75 0 0 0 0-19.499Z" stroke="#fff" stroke-linecap="round" stroke-linejoin="round"></path><rect x=".5" y=".5" width="51" height="51" rx="3.5" stroke="#fff"></rect></svg><svg fill="none" id="icon-search" viewBox="0 0 26 26"><path d="M11.972 18.51a6.452 6.452 0 0 1-6.464-6.466 6.452 6.452 0 0 1 6.464-6.466 6.452 6.452 0 0 1 6.464 6.466 6.452 6.452 0 0 1-6.464 6.465Zm0-11.937a5.454 5.454 0 0 0-5.47 5.47 5.455 5.455 0 0 0 5.47 5.472 5.455 5.455 0 0 0 5.47-5.471 5.455 5.455 0 0 0-5.47-5.471Z" fill="#000"></path><path d="m16.785 16.155 4.465 4.466-.703.704-4.465-4.466.703-.704Z" fill="#000"></path></svg><svg fill="none" id="icon-star" viewBox="0 0 22 21"><path d="m11 17.587 5.188 3.138c.95.575 2.113-.275 1.863-1.35l-1.375-5.9L21.263 9.5c.838-.725.388-2.1-.712-2.188L14.513 6.8l-2.362-5.575c-.425-1.013-1.875-1.013-2.3 0L7.488 6.787 1.451 7.3C.35 7.387-.1 8.762.738 9.487l4.588 3.976-1.375 5.9c-.25 1.075.912 1.925 1.862 1.35l5.188-3.126Z" fill="#FED104"></path></svg></svg>