<svg width="20" height="23" viewBox="0 0 20 23" fill="none" xmlns="http://www.w3.org/2000/svg">
<g clip-path="url(#clip0_816_11059)">
<path d="M1.42857 20.8438C1.42857 21.4156 1.65434 21.9641 2.0562 22.3685C2.45806 22.7728 3.00311 23 3.57143 23H16.4286C16.9969 23 17.5419 22.7728 17.9438 22.3685C18.3457 21.9641 18.5714 21.4156 18.5714 20.8438V5.75001H1.42857V20.8438ZM13.5714 9.34376C13.5714 9.15313 13.6467 8.97032 13.7806 8.83552C13.9146 8.70073 14.0963 8.62501 14.2857 8.62501C14.4752 8.62501 14.6568 8.70073 14.7908 8.83552C14.9247 8.97032 15 9.15313 15 9.34376V19.4063C15 19.5969 14.9247 19.7797 14.7908 19.9145C14.6568 20.0493 14.4752 20.125 14.2857 20.125C14.0963 20.125 13.9146 20.0493 13.7806 19.9145C13.6467 19.7797 13.5714 19.5969 13.5714 19.4063V9.34376ZM9.28571 9.34376C9.28571 9.15313 9.36097 8.97032 9.49492 8.83552C9.62888 8.70073 9.81056 8.62501 10 8.62501C10.1894 8.62501 10.3711 8.70073 10.5051 8.83552C10.639 8.97032 10.7143 9.15313 10.7143 9.34376V19.4063C10.7143 19.5969 10.639 19.7797 10.5051 19.9145C10.3711 20.0493 10.1894 20.125 10 20.125C9.81056 20.125 9.62888 20.0493 9.49492 19.9145C9.36097 19.7797 9.28571 19.5969 9.28571 19.4063V9.34376ZM5 9.34376C5 9.15313 5.07525 8.97032 5.20921 8.83552C5.34316 8.70073 5.52485 8.62501 5.71429 8.62501C5.90373 8.62501 6.08541 8.70073 6.21936 8.83552C6.35332 8.97032 6.42857 9.15313 6.42857 9.34376V19.4063C6.42857 19.5969 6.35332 19.7797 6.21936 19.9145C6.08541 20.0493 5.90373 20.125 5.71429 20.125C5.52485 20.125 5.34316 20.0493 5.20921 19.9145C5.07525 19.7797 5 19.5969 5 19.4063V9.34376ZM19.2857 1.43751H13.9286L13.5089 0.597469C13.42 0.417877 13.2831 0.266809 13.1135 0.161259C12.944 0.0557084 12.7485 -0.000136022 12.5491 7.87603e-06H7.44643C7.24749 -0.00076166 7.05236 0.0548746 6.8834 0.160542C6.71443 0.26621 6.57846 0.417635 6.49107 0.597469L6.07143 1.43751H0.714286C0.524845 1.43751 0.343164 1.51323 0.209209 1.64802C0.0752549 1.78282 0 1.96563 0 2.15626L0 3.59376C0 3.78438 0.0752549 3.9672 0.209209 4.10199C0.343164 4.23678 0.524845 4.31251 0.714286 4.31251H19.2857C19.4752 4.31251 19.6568 4.23678 19.7908 4.10199C19.9247 3.9672 20 3.78438 20 3.59376V2.15626C20 1.96563 19.9247 1.78282 19.7908 1.64802C19.6568 1.51323 19.4752 1.43751 19.2857 1.43751Z" fill="black"/>
</g>
<defs>
<clipPath id="clip0_816_11059">
<rect width="20" height="23" fill="white"/>
</clipPath>
</defs>
</svg>
