<svg width="29" height="44" viewBox="0 0 29 44" fill="none" xmlns="http://www.w3.org/2000/svg">
<g clip-path="url(#clip0_1826_7658)">
<path d="M3.83739 21.2072C3.86518 23.9691 4.593 26.6267 7.36321 28.3005C4.69257 21.8002 7.22995 15.5229 12.2599 13.1713C11.7348 13.9738 10.934 15.7121 11.9098 16.5974C16.4691 12.8809 18.2291 6.51642 18.1467 1.26609C22.3388 6.07253 24.1521 12.6575 20.1161 18.3315C17.5 22.0304 20.2156 26.1957 23.303 18.3906C26.2569 22.7081 27.9855 28.7377 26.2057 34.1384C21.9394 46.4383 2.61636 45.6588 0.995669 33.703C0.43275 29.8178 1.60062 25.342 3.83739 21.2072Z" fill="#EF519D"/>
<path d="M5.66912 18.9824C2.67476 12.5898 9.48734 10.5741 9.83983 7.10884C11.9774 13.5763 5.96267 13.9026 5.66912 18.9824Z" fill="#EF519D"/>
</g>
<defs>
<clipPath id="clip0_1826_7658">
<rect width="26" height="42" fill="white" transform="translate(2.75684 0.336349) rotate(3.53)"/>
</clipPath>
</defs>
</svg>
