<svg width="16" height="26" viewBox="0 0 16 26" fill="none" xmlns="http://www.w3.org/2000/svg">
<g clip-path="url(#clip0_1826_8431)">
<path d="M1.45457 12.8543C1.57629 14.5597 2.12403 16.1741 3.88896 17.1026C2.00231 13.1881 3.32296 9.21282 6.32334 7.56809C6.03122 8.08397 5.6052 9.18854 6.23814 9.69834C8.8977 7.22822 9.73757 3.22869 9.48804 -0.012207C12.245 2.79778 13.6082 6.79732 11.3443 10.457C9.87754 12.8421 11.7033 15.3123 13.3039 10.372C15.2819 12.9271 16.5721 16.5868 15.6836 19.9915C13.5291 27.7539 1.63106 28.0088 0.182603 20.6834C-0.31036 18.3043 0.237377 15.4943 1.45457 12.8543Z" fill="white"/>
<path d="M2.49531 11.4099C0.413914 7.57421 4.52194 6.06908 4.60714 3.91455C6.16515 7.82912 2.48314 8.26002 2.49531 11.4099Z" fill="white"/>
</g>
<defs>
<clipPath id="clip0_1826_8431">
<rect width="16" height="26" fill="white"/>
</clipPath>
</defs>
</svg>
