<svg width="240" height="21" viewBox="0 0 240 21" fill="none" xmlns="http://www.w3.org/2000/svg">
<g clip-path="url(#clip0_1801_13675)">
<path d="M13.4281 15.8317C17.4746 15.8317 21.6756 15.0013 24.693 14.3159L25.6201 19.3496C21.5951 20.412 17.4337 20.9715 13.2473 21.0132C3.6092 20.9997 0 17.3179 0 10.5158C0 3.71382 3.6092 0.0588379 13.2473 0.0588379C17.4337 0.100467 21.5951 0.659982 25.6201 1.72239L24.693 6.74261C21.6756 6.05999 17.4746 5.22687 13.4281 5.22687C6.80442 5.22687 5.24762 6.89042 5.24762 10.5158C5.24762 14.1413 6.80442 15.8317 13.4281 15.8317Z" fill="white"/>
<path d="M29.5645 20.6157V0.357422H47.1703C51.4996 0.357422 54.514 2.10966 54.514 7.4255C54.514 11.8814 52.2197 14.0206 48.3277 14.378L47.1936 14.4076L48.5871 15.3858L54.3595 20.6157H47.7883L41.4737 14.7328H34.7976V20.6157H29.5645ZM34.8121 10.2178H46.6455C48.3714 10.2178 49.0944 9.56474 49.0944 7.90119C49.0944 6.08983 48.3714 5.52545 46.6455 5.52545H34.7976L34.8121 10.2178Z" fill="white"/>
<path d="M78.2041 16.6946H65.2134L63.0735 20.6157H56.7851L68.2541 0.357422H75.2159L86.6616 20.6157H80.3178L78.2041 16.6946ZM75.9098 12.5048L71.7175 4.7219L67.4902 12.5156L75.9098 12.5048Z" fill="white"/>
<path d="M115.217 20.6158H89.5215V15.8912L101.145 8.43607C103.285 7.30733 106.996 5.91253 108.824 5.34547L100.288 5.76203H89.9326V0.593994H115.089V5.34547L105.218 12.0642C102.795 13.4375 98.6174 15.05 96.1452 15.8912L104.985 15.445H115.217V20.6158Z" fill="white"/>
<path d="M118.363 0.357422H125.068L132.94 8.55425L140.84 0.357422H147.438L135.502 13.1283V20.6157H130.272V13.0907L118.363 0.357422Z" fill="white"/>
<path d="M177.134 16.6946H164.134L161.994 20.6157H155.714L167.183 0.357422H174.142L185.585 20.6157H179.247L177.134 16.6946ZM174.839 12.5048L170.638 4.71115L166.411 12.5048H174.839Z" fill="white"/>
<path d="M200.768 21C196.395 21 191.311 20.2878 188.139 19.3875L188.888 14.55C193.206 15.6831 197.672 16.2628 202.162 16.2727C206.284 16.2727 207.033 15.8857 207.033 14.6602C207.033 13.4347 206.389 13.2654 205.022 13.1149L195.305 12.4619C189.841 12.1662 187.856 10.1453 187.856 6.37202C187.856 1.84093 191.311 0 199.453 0C203.391 0.0714692 207.308 0.550151 211.129 1.42705L210.281 5.97159C206.332 5.14258 202.294 4.72341 198.243 4.72191C193.5 4.72191 192.803 5.02022 192.803 6.23765C192.803 7.36639 193.474 7.54377 195.072 7.6647L204.657 8.3312C209.71 8.65639 211.978 10.6774 211.978 14.8645C211.981 19.1295 209.456 21 200.768 21Z" fill="white"/>
<path d="M228.788 21C224.415 21 219.327 20.2878 216.158 19.3875L216.905 14.55C221.223 15.6827 225.689 16.2624 230.178 16.2727C234.303 16.2727 235.05 15.8857 235.05 14.6602C235.05 13.4347 234.405 13.2654 233.041 13.1149L223.315 12.4753C217.849 12.1797 215.867 10.1587 215.867 6.38546C215.876 1.84093 219.327 0 227.473 0C231.406 0.0724723 235.317 0.551146 239.134 1.42705L238.283 5.97159C234.334 5.14256 230.298 4.72339 226.248 4.72191C221.505 4.72191 220.808 5.02022 220.808 6.23765C220.808 7.36639 221.479 7.54377 223.076 7.6647L232.68 8.3312C237.732 8.65639 240 10.6774 240 14.8645C240 19.1295 237.472 21 228.788 21Z" fill="white"/>
</g>
<defs>
<clipPath id="clip0_1801_13675">
<rect width="240" height="21" fill="white"/>
</clipPath>
</defs>
</svg>
