<svg width="436" height="81" viewBox="0 0 436 81" fill="none" xmlns="http://www.w3.org/2000/svg">
<g clip-path="url(#clip0_674_9929)">
<rect width="436" height="81" fill="#F4F4F4"/>
<g clip-path="url(#clip1_674_9929)">
<path d="M779 0H-7V81H779V0Z" fill="#2F1852"/>
<path d="M79.2802 48.0399C84.5615 48.0399 90.0493 46.8541 93.9853 45.8969L95.1954 53.0404C89.9403 54.5559 84.5056 55.3536 79.0382 55.412C66.4541 55.412 61.7422 50.1758 61.7422 40.5035C61.7422 30.8313 66.4541 25.6379 79.0382 25.6379C84.505 25.6977 89.9392 26.4929 95.1954 28.0024L93.9853 35.1459C90.0493 34.1744 84.5615 33.0029 79.2802 33.0029C70.6251 33.0029 68.6036 35.3674 68.6036 40.5178C68.6036 45.6683 70.6251 48.0399 79.2802 48.0399Z" fill="#EF519D"/>
<path d="M100.352 54.8406V26.0381H123.335C128.993 26.0381 132.929 28.5312 132.929 36.089C132.929 42.4252 129.933 45.4612 124.851 45.9684L123.37 46.0113L125.185 47.44L132.723 54.8406H124.146L115.897 46.4756H107.185V54.8406H100.352ZM107.185 40.0608H122.666C124.915 40.0608 125.861 39.1321 125.861 36.7676C125.861 34.1888 124.915 33.3887 122.666 33.3887H107.185V40.0608Z" fill="#EF519D"/>
<path d="M163.828 49.2901H146.895L144.104 54.8692H135.891L150.838 26.0667H159.927L174.874 54.8692H166.618L163.828 49.2901ZM160.838 43.3396L155.35 32.2743L149.827 43.3396H160.838Z" fill="#EF519D"/>
<path d="M212.228 54.8405H178.633V48.1256L193.815 37.5247C197.038 35.7993 200.391 34.3303 203.844 33.1315L192.705 33.7244H179.181V26.3809H212.029V33.1315L199.132 42.6752C195.349 44.8139 191.397 46.6369 187.316 48.1256L198.861 47.4899H212.228V54.8405Z" fill="#EF519D"/>
<path d="M216.297 26.0381H225.037L235.337 37.6963L245.679 26.0381H254.291L238.675 44.1968V54.8406H231.842V44.1254L216.297 26.0381Z" fill="#EF519D"/>
<path d="M293.036 49.2901H276.074L273.277 54.8692H265.07L280.017 26.0667H289.1L304.047 54.8692H295.797L293.036 49.2901ZM290.039 43.3396L284.551 32.2743L279.035 43.3396H290.039Z" fill="#EF519D"/>
<path d="M323.893 55.3905C318.319 55.3661 312.773 54.5974 307.401 53.1046L308.376 46.2254C314.017 47.8369 319.851 48.6613 325.715 48.6757C331.096 48.6757 332.071 48.1256 332.071 46.3897C332.071 44.6539 331.231 44.411 329.445 44.1967L316.761 43.268C309.622 42.8609 307.031 40.0035 307.031 34.6101C307.031 28.181 311.544 25.5308 322.178 25.5308C327.319 25.635 332.433 26.3155 337.424 27.5595L336.313 33.9887C331.156 32.8173 325.885 32.2231 320.598 32.2171C314.405 32.2171 313.48 32.6385 313.48 34.3601C313.48 35.9603 314.355 36.2174 316.441 36.3817L328.954 37.3532C335.552 37.8176 338.513 40.6892 338.513 46.6398C338.534 52.726 335.239 55.3905 323.893 55.3905Z" fill="#EF519D"/>
<path d="M360.479 55.3905C354.905 55.3661 349.359 54.5974 343.987 53.1046L344.962 46.2254C350.6 47.8364 356.432 48.6609 362.294 48.6757C367.682 48.6757 368.657 48.1256 368.657 46.3897C368.657 44.6539 367.817 44.411 366.031 44.1967L353.347 43.268C346.208 42.8609 343.617 40.0035 343.617 34.6101C343.617 28.181 348.13 25.5308 358.764 25.5308C363.905 25.635 369.019 26.3155 374.01 27.5595L372.899 33.9887C367.742 32.8173 362.471 32.2231 357.184 32.2171C350.991 32.2171 350.066 32.6385 350.066 34.3601C350.066 35.9603 350.941 36.2174 353.027 36.3817L365.547 37.3104C372.145 37.7747 375.106 40.6464 375.106 46.5969C375.12 52.726 371.825 55.3905 360.479 55.3905Z" fill="#EF519D"/>
<path d="M22.7523 37.789C22.9018 39.7964 23.5424 41.6965 25.5994 42.7895C23.3858 38.1819 24.9374 33.4672 28.4464 31.5671C28.1048 32.1671 27.5994 33.4672 28.3468 34.0673C31.4572 31.167 32.4395 26.4523 32.1477 22.6377C35.3648 25.9451 36.9592 30.6598 34.283 34.9674C32.5676 37.7676 34.6958 40.6821 36.5749 34.8673C38.8881 37.8676 40.3899 42.1823 39.3579 46.1898C36.8809 55.3263 22.9658 55.6263 21.2647 47.0113C20.6882 44.2039 21.3359 40.8965 22.7523 37.789Z" fill="#EF519D"/>
<path d="M23.9765 36.089C21.5423 31.5814 26.3467 29.7741 26.4535 27.2739C28.2685 31.8815 23.9623 32.3815 23.9765 36.089Z" fill="#EF519D"/>
<path d="M400.355 37.789C400.497 39.7964 401.138 41.6965 403.202 42.7895C400.995 38.1819 402.54 33.4672 406.049 31.5671C405.707 32.1671 405.209 33.4672 405.949 34.0673C409.06 31.167 410.042 26.4523 409.75 22.6377C412.974 25.9451 414.569 30.6598 411.921 34.9674C410.206 37.7676 412.341 40.6821 414.213 34.8673C416.526 37.8676 418.035 42.1823 416.996 46.1898C414.441 55.3049 400.525 55.6049 398.831 46.9898C398.291 44.2039 398.931 40.8965 400.355 37.789Z" fill="#EF519D"/>
<path d="M401.555 36.089C399.12 31.5814 403.925 29.7741 404.025 27.2739C405.861 31.8815 401.555 32.3815 401.555 36.089Z" fill="#EF519D"/>
</g>
</g>
<defs>
<clipPath id="clip0_674_9929">
<rect width="436" height="81" fill="white"/>
</clipPath>
<clipPath id="clip1_674_9929">
<rect width="786" height="81" fill="white" transform="translate(-7)"/>
</clipPath>
</defs>
</svg>
