<svg width="18" height="23" viewBox="0 0 18 23" fill="none" xmlns="http://www.w3.org/2000/svg">
<g clip-path="url(#clip0_1044_7799)">
<rect width="1440" height="4177" transform="translate(-1261 -3242)" fill="white"/>
<path d="M-80.8983 23H-76.3383V1.85H-79.4883L-85.5183 3.65L-84.5583 7.43L-80.8983 6.53V23ZM-62.0679 23H-56.8479L-47.4279 5.48V2H-62.5479V5.99H-52.6779L-62.0679 23ZM-36.6225 23H-32.2125V18.47H-29.3925V14.72H-32.2125V1.85H-36.1125L-47.6325 15.2L-46.8825 18.47H-36.6225V23ZM-42.2025 14.72L-36.6225 8.18V14.72H-42.2025ZM-18.7289 23.36C-13.8989 23.36 -10.7489 20.54 -10.7489 16.1C-10.7489 11.3 -14.0189 9.32 -18.0989 9.32C-19.2689 9.32 -20.0189 9.47 -20.8589 9.68L-20.6189 6.05H-11.6789V2H-24.5789L-25.1789 12.35L-22.5089 14.12C-21.5189 13.7 -20.3189 13.34 -18.9989 13.34C-16.8089 13.34 -15.2789 14.39 -15.2789 16.19C-15.2789 18.11 -16.6289 19.16 -18.7889 19.16C-20.6489 19.16 -22.2089 18.32 -23.7989 16.88L-26.5889 20.21C-24.5489 22.16 -22.0889 23.36 -18.7289 23.36ZM2.71172 23V19.79H0.311719V16.88H2.71172V14.54H0.311719V10.82H2.71172V1.58H9.55172C12.3117 1.58 14.3217 2.14 15.5817 3.26C16.8617 4.38 17.5017 5.92 17.5017 7.88C17.5017 9.04 17.2417 10.13 16.7217 11.15C16.2017 12.17 15.3317 12.99 14.1117 13.61C12.9117 14.23 11.2717 14.54 9.19172 14.54H7.24172V16.88H11.8617V19.79H7.24172V23H2.71172ZM8.74172 10.82C10.0217 10.82 11.0317 10.6 11.7717 10.16C12.5317 9.72 12.9117 9.01 12.9117 8.03C12.9117 6.21 11.7117 5.3 9.31172 5.3H7.24172V10.82H8.74172Z" fill="#1C1C1C"/>
</g>
<defs>
<clipPath id="clip0_1044_7799">
<rect width="1440" height="4177" fill="white" transform="translate(-1261 -3242)"/>
</clipPath>
</defs>
</svg>
