<svg width="8" height="10" viewBox="0 0 8 10" fill="none" xmlns="http://www.w3.org/2000/svg">
<rect width="777" height="695" transform="translate(-714 -529)" fill="#F4F4F4"/>
<path d="M-40.3264 10H-38.1984V0.129999H-39.6684L-42.4824 0.969999L-42.0344 2.734L-40.3264 2.314V10ZM-27.1428 10H-25.0848V7.886H-23.7688V6.136H-25.0848V0.129999H-26.9048L-32.2808 6.36L-31.9308 7.886H-27.1428V10ZM-29.7468 6.136L-27.1428 3.084V6.136H-29.7468ZM-17.4905 10H-15.4325V7.886H-14.1165V6.136H-15.4325V0.129999H-17.2525L-22.6285 6.36L-22.2785 7.886H-17.4905V10ZM-20.0945 6.136L-17.4905 3.084V6.136H-20.0945ZM-9.14016 10.168C-6.88616 10.168 -5.41616 8.852 -5.41616 6.78C-5.41616 4.54 -6.94216 3.616 -8.84616 3.616C-9.39216 3.616 -9.74216 3.686 -10.1342 3.784L-10.0222 2.09H-5.85016V0.199999H-11.8702L-12.1502 5.03L-10.9042 5.856C-10.4422 5.66 -9.88216 5.492 -9.26616 5.492C-8.24416 5.492 -7.53016 5.982 -7.53016 6.822C-7.53016 7.718 -8.16016 8.208 -9.16816 8.208C-10.0362 8.208 -10.7642 7.816 -11.5062 7.144L-12.8082 8.698C-11.8562 9.608 -10.7082 10.168 -9.14016 10.168ZM0.865469 10V8.502H-0.254531V7.144H0.865469V6.052H-0.254531V4.316H0.865469V0.00399935H4.05747C5.34547 0.00399935 6.28347 0.265333 6.87147 0.787999C7.4688 1.31067 7.76747 2.02933 7.76747 2.944C7.76747 3.48533 7.64614 3.994 7.40347 4.47C7.1608 4.946 6.7548 5.32867 6.18547 5.618C5.62547 5.90733 4.86014 6.052 3.88947 6.052H2.97947V7.144H5.13547V8.502H2.97947V10H0.865469ZM3.67947 4.316C4.2768 4.316 4.74814 4.21333 5.09347 4.008C5.44814 3.80267 5.62547 3.47133 5.62547 3.014C5.62547 2.16467 5.06547 1.74 3.94547 1.74H2.97947V4.316H3.67947Z" fill="#1C1C1C"/>
</svg>
