<svg width="26" height="31" viewBox="0 0 26 31" fill="none" xmlns="http://www.w3.org/2000/svg">
<rect width="890" height="673" transform="translate(-585 -410)" fill="white"/>
<path d="M-111.574 31H-104.886V-0.0200019H-109.506L-118.35 2.62L-116.942 8.164L-111.574 6.844V31ZM-98.6877 31H-75.8957V25.148H-89.3157L-84.2997 21.276C-78.8438 17.052 -76.2037 14.5 -76.2037 9.352C-76.2037 3.5 -80.4277 -0.240002 -86.8077 -0.240002C-92.3077 -0.240002 -95.2557 2.004 -98.2917 6.14L-93.5397 9.968C-91.2517 7.152 -89.6237 5.832 -87.2477 5.832C-84.8277 5.832 -83.1117 7.24 -83.1117 9.836C-83.1117 12.388 -84.6077 14.06 -88.4357 17.228L-98.6877 25.632V31ZM-60.0097 31.528C-52.9257 31.528 -48.3057 27.392 -48.3057 20.88C-48.3057 13.84 -53.1017 10.936 -59.0857 10.936C-60.8017 10.936 -61.9017 11.156 -63.1337 11.464L-62.7817 6.14H-49.6697V0.199998H-68.5897L-69.4697 15.38L-65.5537 17.976C-64.1017 17.36 -62.3417 16.832 -60.4057 16.832C-57.1937 16.832 -54.9497 18.372 -54.9497 21.012C-54.9497 23.828 -56.9297 25.368 -60.0977 25.368C-62.8257 25.368 -65.1137 24.136 -67.4457 22.024L-71.5377 26.908C-68.5457 29.768 -64.9377 31.528 -60.0097 31.528ZM-29.6988 31.528C-21.4708 31.528 -15.9708 24.532 -15.9708 15.6C-15.9708 6.58 -21.4708 -0.328001 -29.6108 -0.328001C-37.7948 -0.328001 -43.3388 6.668 -43.3388 15.6C-43.3388 24.62 -37.9268 31.528 -29.6988 31.528ZM-29.6108 25.412C-33.7028 25.412 -36.3868 21.232 -36.3868 15.6C-36.3868 9.88 -33.7468 5.788 -29.6988 5.788C-25.6508 5.788 -22.9228 10.012 -22.9228 15.6C-22.9228 21.276 -25.5188 25.412 -29.6108 25.412ZM3.57719 31V26.292H0.0571875V22.024H3.57719V18.592H0.0571875V13.136H3.57719V-0.416002H13.6092C17.6572 -0.416002 20.6052 0.405331 22.4532 2.048C24.3305 3.69066 25.2692 5.94933 25.2692 8.824C25.2692 10.5253 24.8879 12.124 24.1252 13.62C23.3625 15.116 22.0865 16.3187 20.2972 17.228C18.5372 18.1373 16.1319 18.592 13.0812 18.592H10.2212V22.024H16.9972V26.292H10.2212V31H3.57719ZM12.4212 13.136C14.2985 13.136 15.7799 12.8133 16.8652 12.168C17.9799 11.5227 18.5372 10.4813 18.5372 9.044C18.5372 6.37467 16.7772 5.04 13.2572 5.04H10.2212V13.136H12.4212Z" fill="#1C1C1C"/>
</svg>
