<svg width="11" height="13" viewBox="0 0 11 13" fill="none" xmlns="http://www.w3.org/2000/svg">
<rect width="777" height="695" transform="translate(-711 -564)" fill="#F4F4F4"/>
<path d="M-50.6417 13H-47.9057V0.309999H-49.7957L-53.4137 1.39L-52.8377 3.658L-50.6417 3.118V13ZM-35.4195 13.216C-31.8375 13.216 -29.9115 10.426 -29.9115 6.34C-29.9115 3.82 -30.5055 2.452 -31.4055 1.552C-32.3595 0.598 -33.3495 0.184 -35.0415 0.184C-37.8855 0.184 -39.8475 2.056 -39.8475 4.594C-39.8475 7.186 -38.0835 8.698 -35.3475 8.698C-34.2495 8.698 -33.4035 8.356 -32.7915 7.834C-32.9715 9.526 -33.7995 10.696 -35.3475 10.696C-36.4095 10.696 -37.1835 10.354 -38.1015 9.616L-39.5595 11.722C-38.4975 12.604 -37.2555 13.216 -35.4195 13.216ZM-34.8975 6.394C-36.2655 6.394 -37.0935 5.62 -37.0935 4.504C-37.0935 3.352 -36.3195 2.56 -34.9515 2.56C-33.5655 2.56 -32.7375 3.37 -32.7375 4.486C-32.7375 5.602 -33.5295 6.394 -34.8975 6.394ZM-21.7735 13H-19.1275V10.282H-17.4355V8.032H-19.1275V0.309999H-21.4675L-28.3795 8.32L-27.9295 10.282H-21.7735V13ZM-25.1215 8.032L-21.7735 4.108V8.032H-25.1215ZM-11.0373 13.216C-8.13934 13.216 -6.24934 11.524 -6.24934 8.86C-6.24934 5.98 -8.21134 4.792 -10.6593 4.792C-11.3613 4.792 -11.8113 4.882 -12.3153 5.008L-12.1713 2.83H-6.80734V0.399999H-14.5473L-14.9073 6.61L-13.3053 7.672C-12.7113 7.42 -11.9913 7.204 -11.1993 7.204C-9.88534 7.204 -8.96734 7.834 -8.96734 8.914C-8.96734 10.066 -9.77734 10.696 -11.0733 10.696C-12.1893 10.696 -13.1253 10.192 -14.0793 9.328L-15.7533 11.326C-14.5293 12.496 -13.0533 13.216 -11.0373 13.216ZM1.82703 13V11.074H0.387031V9.328H1.82703V7.924H0.387031V5.692H1.82703V0.147999H5.93103C7.58703 0.147999 8.79303 0.483999 9.54903 1.156C10.317 1.828 10.701 2.752 10.701 3.928C10.701 4.624 10.545 5.278 10.233 5.89C9.92103 6.502 9.39903 6.994 8.66703 7.366C7.94703 7.738 6.96303 7.924 5.71503 7.924H4.54503V9.328H7.31703V11.074H4.54503V13H1.82703ZM5.44503 5.692C6.21303 5.692 6.81903 5.56 7.26303 5.296C7.71903 5.032 7.94703 4.606 7.94703 4.018C7.94703 2.926 7.22703 2.38 5.78703 2.38H4.54503V5.692H5.44503Z" fill="#1C1C1C"/>
</svg>
