<svg width="11" height="15" viewBox="0 0 11 15" fill="none" xmlns="http://www.w3.org/2000/svg">
<g clip-path="url(#clip0_1044_7799)">
<rect width="1440" height="4177" transform="translate(-1268 -3187)" fill="white"/>
<path d="M-58.0377 15H-54.9977V0.899999H-57.0977L-61.1177 2.1L-60.4777 4.62L-58.0377 4.02V15ZM-39.2041 15H-36.2641V11.98H-34.3841V9.48H-36.2641V0.899999H-38.8641L-46.5441 9.8L-46.0441 11.98H-39.2041V15ZM-42.9241 9.48L-39.2041 5.12V9.48H-42.9241ZM-25.415 15H-22.475V11.98H-20.595V9.48H-22.475V0.899999H-25.075L-32.755 9.8L-32.255 11.98H-25.415V15ZM-29.135 9.48L-25.415 5.12V9.48H-29.135ZM-13.4859 15.24C-10.2659 15.24 -8.16594 13.36 -8.16594 10.4C-8.16594 7.2 -10.3459 5.88 -13.0659 5.88C-13.8459 5.88 -14.3459 5.98 -14.9059 6.12L-14.7459 3.7H-8.78594V0.999999H-17.3859L-17.7859 7.9L-16.0059 9.08C-15.3459 8.8 -14.5459 8.56 -13.6659 8.56C-12.2059 8.56 -11.1859 9.26 -11.1859 10.46C-11.1859 11.74 -12.0859 12.44 -13.5259 12.44C-14.7659 12.44 -15.8059 11.88 -16.8659 10.92L-18.7259 13.14C-17.3659 14.44 -15.7259 15.24 -13.4859 15.24ZM0.807813 15V12.86H-0.792187V10.92H0.807813V9.36H-0.792187V6.88H0.807813V0.719999H5.36781C7.20781 0.719999 8.54781 1.09333 9.38781 1.84C10.2411 2.58667 10.6678 3.61333 10.6678 4.92C10.6678 5.69333 10.4945 6.42 10.1478 7.1C9.80115 7.78 9.22115 8.32667 8.40781 8.74C7.60781 9.15333 6.51448 9.36 5.12781 9.36H3.82781V10.92H6.90781V12.86H3.82781V15H0.807813ZM4.82781 6.88C5.68115 6.88 6.35448 6.73333 6.84781 6.44C7.35448 6.14667 7.60781 5.67333 7.60781 5.02C7.60781 3.80667 6.80781 3.2 5.20781 3.2H3.82781V6.88H4.82781Z" fill="#1C1C1C"/>
</g>
<defs>
<clipPath id="clip0_1044_7799">
<rect width="1440" height="4177" fill="white" transform="translate(-1268 -3187)"/>
</clipPath>
</defs>
</svg>
